<svg xmlns="http://www.w3.org/2000/svg" width="560" height="104" viewBox="0 0 560 104" fill="none">
  <defs>
    <linearGradient id="gGold" x1="0" y1="0" x2="1" y2="1">
      <stop offset="0%" stop-color="#FFE08A"/>
      <stop offset="100%" stop-color="#F5A623"/>
    </linearGradient>
    <linearGradient id="gBlue" x1="0" y1="0" x2="1" y2="1">
      <stop offset="0%" stop-color="#B8FFFF"/>
      <stop offset="45%" stop-color="#46CCFF"/>
      <stop offset="100%" stop-color="#355BFF"/>
    </linearGradient>
    <filter id="glowBlue" x="-50%" y="-50%" width="200%" height="200%">
      <feGaussianBlur stdDeviation="3.2" result="blur"/>
      <feMerge><feMergeNode in="blur"/><feMergeNode in="SourceGraphic"/></feMerge>
    </filter>
    <filter id="glowGold" x="-50%" y="-50%" width="200%" height="200%">
      <feGaussianBlur stdDeviation="3.8" result="blur"/>
      <feMerge><feMergeNode in="blur"/><feMergeNode in="SourceGraphic"/></feMerge>
    </filter>
  </defs>
  <g transform="translate(8,10)">
    <path d="M8 52 C18 44, 22 30, 35 24 C42 20,49 13,54 7 C53 16,51 23,45 29 C38 36,36 44,31 48 C23 54,18 57,8 52Z" fill="#FF563D"/>
    <g transform="translate(36,-2)" filter="url(#glowGold)">
      <path d="M26 10 C14 12,6 23,6 40" stroke="url(#gGold)" stroke-width="4" stroke-linecap="round"/>
      <path d="M30 0 C11 4,-1 18,-1 42" stroke="url(#gGold)" stroke-width="4" stroke-linecap="round"/>
      <path d="M34 10 C46 12,54 23,54 40" stroke="url(#gGold)" stroke-width="4" stroke-linecap="round"/>
      <path d="M30 0 C49 4,61 18,61 42" stroke="url(#gGold)" stroke-width="4" stroke-linecap="round"/>
    </g>
    <g transform="translate(55,19)">
      <line x1="13" y1="0" x2="0" y2="33" stroke="#F4F8FF" stroke-width="2.8"/>
      <line x1="13" y1="0" x2="26" y2="33" stroke="#F4F8FF" stroke-width="2.8"/>
      <line x1="4" y1="33" x2="22" y2="33" stroke="#F4F8FF" stroke-width="2.8"/>
      <line x1="7" y1="24" x2="19" y2="24" stroke="#F4F8FF" stroke-width="2.2"/>
      <line x1="9" y1="16" x2="17" y2="16" stroke="#F4F8FF" stroke-width="2"/>
      <circle cx="13" cy="-2" r="4.4" fill="url(#gGold)"/>
    </g>
    <path d="M95 3 C105 -2,112 2,116 10 C109 9,104 10,100 14 C103 16,107 17,111 20 C103 21,98 20,95 17 C93 20,91 22,89 24 C89 17,90 9,95 3Z" fill="#F7FAFF"/>
    <g filter="url(#glowBlue)">
      <path d="M82 51 Q90 42 98 51 L98 62 Q98 69 92 72 Q86 75 81 71 Q77 68 77 62 Q77 55 83 52 Q88 50 92 51 L92 44 Q87 44 84 47 Q82 49 82 51Z" fill="url(#gBlue)"/>
    </g>
  </g>

  <g transform="translate(122,12)">
    <text x="0" y="30" fill="#F3F7FF" font-family="Inter, Arial, sans-serif" font-size="31" font-weight="800" letter-spacing="-0.4">RADIO</text>
    <text x="120" y="30" fill="url(#gGold)" font-family="Inter, Arial, sans-serif" font-size="31" font-weight="800" letter-spacing="-0.4">CONEXIÓN</text>
    <text x="120" y="62" fill="url(#gBlue)" filter="url(#glowBlue)" font-family="Inter, Arial, sans-serif" font-size="31" font-weight="800" letter-spacing="-0.4">LATINA</text>
    <line x1="118" y1="68" x2="350" y2="68" stroke="url(#gGold)" stroke-width="1.8" opacity="0.75"/>
    <text x="118" y="92" fill="#F3F7FF" font-family="Inter, Arial, sans-serif" font-size="22" font-weight="700" letter-spacing="4">EDMONTON</text>
  </g>
</svg>