<svg xmlns="http://www.w3.org/2000/svg" width="620" height="520" viewBox="0 0 620 520" fill="none">
  <defs>
    <linearGradient id="gGold" x1="0" y1="0" x2="1" y2="1">
      <stop offset="0%" stop-color="#FFE08A"/>
      <stop offset="100%" stop-color="#F5A623"/>
    </linearGradient>
    <linearGradient id="gBlue" x1="0" y1="0" x2="1" y2="1">
      <stop offset="0%" stop-color="#89F2FF"/>
      <stop offset="55%" stop-color="#34B8FF"/>
      <stop offset="100%" stop-color="#3D6BFF"/>
    </linearGradient>
    <linearGradient id="badgeBlue" x1="0" y1="0" x2="1" y2="1">
      <stop offset="0%" stop-color="#0F1C3D"/>
      <stop offset="100%" stop-color="#162A5A"/>
    </linearGradient>
    <filter id="glowGold" x="-50%" y="-50%" width="200%" height="200%">
      <feGaussianBlur stdDeviation="6" result="blur"/>
      <feMerge><feMergeNode in="blur"/><feMergeNode in="SourceGraphic"/></feMerge>
    </filter>
    <filter id="glowBlue" x="-50%" y="-50%" width="200%" height="200%">
      <feGaussianBlur stdDeviation="5" result="blur"/>
      <feMerge><feMergeNode in="blur"/><feMergeNode in="SourceGraphic"/></feMerge>
    </filter>
    <filter id="shadow" x="-30%" y="-30%" width="160%" height="160%">
      <feDropShadow dx="0" dy="14" stdDeviation="18" flood-color="#000814" flood-opacity="0.35"/>
    </filter>
  </defs>

  <g transform="translate(72,36)" filter="url(#shadow)">
    <path d="M36 215 C56 198,58 154,95 132 C129 112,158 74,165 44 C151 70,149 93,133 108 C111 128,107 162,95 173 C77 190,59 204,36 215Z" fill="#FF563D" opacity="0.95"/>
    <g transform="translate(160,0)" filter="url(#glowGold)">
      <path d="M84 40 C41 44,6 79,4 138" stroke="url(#gGold)" stroke-width="10" stroke-linecap="round"/>
      <path d="M99 16 C33 22,-11 65,-15 145" stroke="url(#gGold)" stroke-width="10" stroke-linecap="round" opacity="0.95"/>
      <path d="M114 40 C157 44,192 79,194 138" stroke="url(#gGold)" stroke-width="10" stroke-linecap="round"/>
      <path d="M129 16 C195 22,239 65,243 145" stroke="url(#gGold)" stroke-width="10" stroke-linecap="round" opacity="0.95"/>
    </g>
    <g transform="translate(220,112)">
      <line x1="28" y1="0" x2="0" y2="118" stroke="#F3F7FF" stroke-width="8"/>
      <line x1="28" y1="0" x2="56" y2="118" stroke="#F3F7FF" stroke-width="8"/>
      <line x1="8" y1="118" x2="48" y2="118" stroke="#F3F7FF" stroke-width="8"/>
      <line x1="14" y1="92" x2="42" y2="92" stroke="#F3F7FF" stroke-width="6"/>
      <line x1="18" y1="64" x2="38" y2="64" stroke="#F3F7FF" stroke-width="5"/>
      <line x1="22" y1="34" x2="34" y2="34" stroke="#F3F7FF" stroke-width="4"/>
      <circle cx="28" cy="-12" r="13" fill="url(#gGold)"/>
    </g>

    <!-- pumpjack -->
    <g transform="translate(372,118)">
      <rect x="40" y="78" width="10" height="104" fill="#8A6A49"/>
      <rect x="78" y="96" width="10" height="86" fill="#8A6A49"/>
      <path d="M16 54 L128 28 L138 44 L28 70 Z" fill="#6F5038"/>
      <path d="M112 20 C132 22,142 38,144 54 C127 50,115 36,112 20Z" fill="#F04A3A"/>
      <line x1="44" y1="84" x2="22" y2="58" stroke="#8A6A49" stroke-width="6"/>
      <line x1="82" y1="100" x2="126" y2="40" stroke="#8A6A49" stroke-width="6"/>
      <line x1="48" y1="182" x2="83" y2="108" stroke="#8A6A49" stroke-width="6"/>
      <line x1="83" y1="108" x2="130" y2="44" stroke="#8A6A49" stroke-width="6"/>
    </g>

    <path d="M380 76 C399 64,416 66,429 82 C414 78,403 77,391 86 C396 91,404 96,414 103 C397 104,386 99,380 93 C376 98,372 104,367 108 C367 93,370 83,380 76Z" fill="#F7FAFF"/>

    <g filter="url(#glowBlue)">
      <path d="M458 246 Q478 224 496 246 L496 273 Q496 289 483 297 Q470 304 458 297 Q446 290 446 274 Q446 259 458 251 Q471 244 482 246 L482 232 Q470 232 463 239 Q460 243 458 246Z" fill="url(#gBlue)"/>
    </g>

    <!-- badge -->
    <g transform="translate(122,238)">
      <rect x="0" y="0" width="300" height="88" rx="22" fill="url(#badgeBlue)" stroke="url(#gGold)" stroke-width="3"/>
      <text x="150" y="58" text-anchor="middle" fill="#F2F6FF" font-family="Inter, Arial, sans-serif" font-size="52" font-weight="900" letter-spacing="-1">RADIO</text>
    </g>
    <g transform="translate(98,324)">
      <rect x="0" y="0" width="350" height="74" rx="18" fill="url(#badgeBlue)" stroke="url(#gGold)" stroke-width="3"/>
      <text x="176" y="49" text-anchor="middle" fill="url(#gBlue)" filter="url(#glowBlue)" font-family="Inter, Arial, sans-serif" font-size="39" font-weight="900" letter-spacing="-0.5">CONEXIÓN LATINA</text>
    </g>
    <text x="273" y="428" text-anchor="middle" fill="#F2F6FF" font-family="Inter, Arial, sans-serif" font-size="28" font-weight="700" letter-spacing="6">EDMONTON</text>
  </g>
</svg>