<svg xmlns="http://www.w3.org/2000/svg" width="192" height="192" viewBox="0 0 192 192" fill="none">
  <defs>
    <linearGradient id="bg" x1="0" y1="0" x2="1" y2="1">
      <stop offset="0%" stop-color="#09111E"/>
      <stop offset="100%" stop-color="#04070E"/>
    </linearGradient>
    <linearGradient id="gGold" x1="0" y1="0" x2="1" y2="1">
      <stop offset="0%" stop-color="#FFE08A"/>
      <stop offset="100%" stop-color="#F5A623"/>
    </linearGradient>
    <linearGradient id="gBlue" x1="0" y1="0" x2="1" y2="1">
      <stop offset="0%" stop-color="#B8FFFF"/>
      <stop offset="45%" stop-color="#46CCFF"/>
      <stop offset="100%" stop-color="#355BFF"/>
    </linearGradient>
    <filter id="glowGold" x="-50%" y="-50%" width="200%" height="200%">
      <feGaussianBlur stdDeviation="4" result="blur"/>
      <feMerge><feMergeNode in="blur"/><feMergeNode in="SourceGraphic"/></feMerge>
    </filter>
    <filter id="glowBlue" x="-50%" y="-50%" width="200%" height="200%">
      <feGaussianBlur stdDeviation="3" result="blur"/>
      <feMerge><feMergeNode in="blur"/><feMergeNode in="SourceGraphic"/></feMerge>
    </filter>
  </defs>
  <rect x="12" y="12" width="168" height="168" rx="42" fill="url(#bg)"/>
  <g transform="translate(31,22)">
    <g filter="url(#glowGold)">
      <path d="M60 12 C42 14,28 28,26 52" stroke="url(#gGold)" stroke-width="6" stroke-linecap="round"/>
      <path d="M68 0 C34 5,14 24,12 56" stroke="url(#gGold)" stroke-width="6" stroke-linecap="round"/>
      <path d="M76 12 C94 14,108 28,110 52" stroke="url(#gGold)" stroke-width="6" stroke-linecap="round"/>
      <path d="M68 0 C102 5,122 24,124 56" stroke="url(#gGold)" stroke-width="6" stroke-linecap="round"/>
    </g>
    <g transform="translate(52,46)">
      <line x1="16" y1="0" x2="0" y2="55" stroke="#F3F7FF" stroke-width="4"/>
      <line x1="16" y1="0" x2="32" y2="55" stroke="#F3F7FF" stroke-width="4"/>
      <line x1="5" y1="55" x2="27" y2="55" stroke="#F3F7FF" stroke-width="4"/>
      <line x1="9" y1="43" x2="23" y2="43" stroke="#F3F7FF" stroke-width="3.2"/>
      <line x1="11" y1="30" x2="21" y2="30" stroke="#F3F7FF" stroke-width="2.8"/>
      <circle cx="16" cy="-6" r="6.8" fill="url(#gGold)"/>
    </g>
    <path d="M95 18 C104 12,112 15,117 22 C111 21,106 22,102 26 C105 28,109 29,113 32 C106 33,101 32,97 29 C95 31,93 33,91 35 C91 29,92 23,95 18Z" fill="#F7FAFF"/>
    <g filter="url(#glowBlue)">
      <path d="M99 101 Q110 89 120 101 L120 119 Q120 128 112 132 Q104 136 98 132 Q92 128 92 119 Q92 110 99 106 Q106 102 112 103 L112 93 Q106 93 102 97 Q100 99 99 101Z" fill="url(#gBlue)"/>
    </g>
  </g>
</svg>